#N canvas 742 223 1099 849 12;
#X obj 485 240 textfile, f 9;
#X obj 170 40 bng 19 250 50 0 empty empty empty 0 -10 0 12 #fcfcfc #000000 #000000;
#X obj 593 335 print b;
#X obj 489 323 print a;
#X msg 393 140 clear;
#X obj 392 108 bng 19 250 50 0 empty empty empty 0 -10 0 12 #fcfcfc #000000 #000000;
#X obj 500 110 bng 19 250 50 0 empty empty empty 0 -10 0 12 #fcfcfc #000000 #000000;
#X msg 481 142 rewind;
#X msg 35 375 get 0;
#X obj 137 435 list store, f 26;
#X msg 82 341 get 1;
#X msg 143 340 get 2;
#X msg 178 379 get 3 -1;
#X obj 98 491 print x;
#X obj 311 481 print y;
#X obj 228 171 bng 19 250 50 0 empty empty empty 0 -10 0 12 #fcfcfc #000000 #000000;
#X msg 184 73 read example.musicline cr, f 47;
#X connect 0 0 3 0;
#X connect 0 0 9 1;
#X connect 0 1 2 0;
#X connect 1 0 16 0;
#X connect 4 0 0 0;
#X connect 5 0 4 0;
#X connect 6 0 7 0;
#X connect 7 0 0 0;
#X connect 8 0 9 0;
#X connect 9 0 13 0;
#X connect 9 1 14 0;
#X connect 10 0 9 0;
#X connect 11 0 9 0;
#X connect 12 0 9 0;
#X connect 15 0 0 0;
#X connect 16 0 0 0;
